<?xml version="1.0" encoding="UTF-8" standalone="no"?>
<svg
   width="1450"
   height="281"
   viewBox="0 0 1450 281"
   fill="none"
   version="1.1"
   id="svg134"
   sodipodi:docname="HERO_wave.svg"
   inkscape:version="1.3.2 (091e20e, 2023-11-25, custom)"
   xmlns:inkscape="http://www.inkscape.org/namespaces/inkscape"
   xmlns:sodipodi="http://sodipodi.sourceforge.net/DTD/sodipodi-0.dtd"
   xmlns="http://www.w3.org/2000/svg"
   xmlns:svg="http://www.w3.org/2000/svg">
  <sodipodi:namedview
     id="namedview134"
     pagecolor="#ffffff"
     bordercolor="#000000"
     borderopacity="0.25"
     inkscape:showpageshadow="2"
     inkscape:pageopacity="0.0"
     inkscape:pagecheckerboard="0"
     inkscape:deskcolor="#d1d1d1"
     inkscape:zoom="0.81113196"
     inkscape:cx="799.5"
     inkscape:cy="139.92791"
     inkscape:window-width="1920"
     inkscape:window-height="1094"
     inkscape:window-x="-11"
     inkscape:window-y="-11"
     inkscape:window-maximized="1"
     inkscape:current-layer="svg134" />
  <g
     opacity="0.4"
     id="g24">
    <path
       d="m 1072.75,1 c 0,0 -20.26,268.509 -311.457,56.1419 C 662.458,-14.9429 594.058,164.576 544.171,172.819 472.061,184.735 467.142,91.5412 385.148,84.3866 312.266,78.0297 242.675,184.818 169.198,179.879 92.9278,174.757 18.4624,42.4084 18.4624,42.4084"
       stroke="url(#paint0_linear_692_372)"
       stroke-width="1.76"
       stroke-miterlimit="10"
       id="path1"
       style="stroke:url(#paint0_linear_692_372)" />
    <path
       d="m 1078.35,3.84961 c 0,0 -12.77,162.53739 -159.591,134.29239 -40.82,-7.839 -92.308,-31.69 -155.611,-76.1371 C 745.395,49.6331 728.61,45.011 712.774,45.9671 640.164,50.2282 586.745,170.015 543.171,174.441 470.042,181.868 465.844,95.3532 384.699,90.098 c -2.831,-0.1836 -5.661,-0.2026 -8.485,-0.0696 -69.672,3.6027 -135.343,97.6646 -206.915,92.1496 -7.585,-0.557 -15.164,-2.343 -22.667,-5.097 C 79.1124,152.268 17.7026,52.7355 17.7026,52.7355"
       stroke="url(#paint1_linear_692_372)"
       stroke-width="1.76"
       stroke-miterlimit="10"
       id="path2"
       style="stroke:url(#paint1_linear_692_372)" />
    <path
       d="m 1083.94,6.69238 c 0,0 -13.12,160.60662 -161.781,134.41862 C 880.789,133.843 828.452,109.384 764.991,66.8612 747.117,54.8882 730.142,50.5701 714.218,51.7477 641.639,56.8953 588.423,174.054 542.171,176.049 468.18,179.24 464.552,99.1521 384.249,95.79 381.451,95.6697 378.652,95.6951 375.853,95.8913 306.27,100.76 241.966,190.51 169.4,184.463 c -7.528,-0.626 -15.062,-2.38 -22.54,-5.09 C 79.467,154.958 16.9429,63.0685 16.9429,63.0685"
       stroke="url(#paint2_linear_692_372)"
       stroke-width="1.76"
       stroke-miterlimit="10"
       id="path3"
       style="stroke:url(#paint2_linear_692_372)" />
    <path
       d="m 1089.54,9.54102 c 0,0 -13.49,158.67498 -163.981,134.54598 C 883.638,137.394 830.37,112.429 766.84,71.7232 748.826,60.1808 731.68,56.1666 715.662,57.5342 643.127,63.7328 590.177,178.195 541.164,177.669 c -74.75,-0.804 -77.916,-74.7 -157.371,-76.168 -2.76,-0.057 -5.534,0.025 -8.313,0.272 -69.489,6.268 -132.437,91.706 -205.991,84.988 -7.471,-0.684 -14.968,-2.418 -22.42,-5.084 C 79.8152,157.649 16.1831,73.3947 16.1831,73.3947"
       stroke="url(#paint3_linear_692_372)"
       stroke-width="1.76"
       stroke-miterlimit="10"
       id="path4"
       style="stroke:url(#paint3_linear_692_372)" />
    <path
       d="m 1095.13,12.3906 c 0,0 -13.84,156.7444 -166.171,134.6724 C 886.487,140.946 832.276,115.487 768.682,76.5799 750.523,65.468 733.219,61.7324 717.099,63.3153 644.596,70.4446 591.981,182.425 540.157,179.278 c -75.44,-4.584 -78.207,-72.509 -156.813,-72.079 -2.729,0.007 -5.471,0.14 -8.225,0.444 -69.4,7.68 -130.981,88.806 -205.529,81.411 -7.414,-0.735 -14.866,-2.457 -22.293,-5.078 C 80.1698,160.346 15.4233,83.7282 15.4233,83.7282"
       stroke="url(#paint4_linear_692_372)"
       stroke-width="1.76"
       stroke-miterlimit="10"
       id="path5"
       style="stroke:url(#paint4_linear_692_372)" />
    <path
       d="m 1100.73,15.2334 c 0,0 -14.2,154.8126 -168.364,134.8056 C 889.343,144.498 834.176,118.552 770.537,81.4425 752.233,70.7675 734.764,67.3041 718.549,69.1023 646.084,77.1497 593.83,186.768 539.163,180.899 463.071,172.731 460.665,110.58 382.9,112.904 c -2.697,0.07 -5.413,0.26 -8.136,0.614 -69.311,9.099 -129.531,85.913 -205.066,77.828 -7.357,-0.786 -14.771,-2.495 -22.167,-5.066 C 80.5181,163.037 14.6636,94.0549 14.6636,94.0549"
       stroke="url(#paint5_linear_692_372)"
       stroke-width="1.76"
       stroke-miterlimit="10"
       id="path6"
       style="stroke:url(#paint5_linear_692_372)" />
    <path
       d="m 1106.32,18.082 c 0,0 -14.56,152.882 -170.561,134.932 C 892.185,148.05 836.056,121.622 772.38,86.3045 753.923,76.0664 736.296,72.869 719.986,74.8887 647.56,83.8542 595.672,191.199 538.15,182.513 c -76.738,-11.587 -78.783,-67.97 -155.712,-63.905 -2.665,0.139 -5.35,0.38 -8.047,0.792 -69.229,10.535 -128.081,83.032 -204.604,74.25 -7.301,-0.836 -14.671,-2.533 -22.047,-5.059 C 80.8727,165.728 13.9038,104.387 13.9038,104.387"
       stroke="url(#paint6_linear_692_372)"
       stroke-width="1.76"
       stroke-miterlimit="10"
       id="path7"
       style="stroke:url(#paint6_linear_692_372)" />
    <path
       d="m 1111.92,20.9258 c 0,0 -14.92,150.9502 -172.754,135.0582 C 895.041,151.596 837.937,124.7 774.229,91.1617 755.62,81.3668 737.841,78.4353 721.43,80.6703 649.041,90.5476 597.528,195.727 537.15,184.128 c -77.384,-14.867 -79.075,-65.76 -155.161,-59.814 -2.634,0.202 -5.287,0.494 -7.959,0.962 -69.141,11.979 -126.631,80.158 -204.142,70.667 -7.243,-0.887 -14.575,-2.571 -21.92,-5.053 C 81.2272,168.419 13.144,114.715 13.144,114.715"
       stroke="url(#paint7_linear_692_372)"
       stroke-width="1.76"
       stroke-miterlimit="10"
       id="path8"
       style="stroke:url(#paint7_linear_692_372)" />
    <path
       d="m 1117.51,23.7744 c 0,0 -15.27,149.0196 -174.938,135.1846 C 897.897,155.148 839.811,127.796 776.084,96.0175 757.323,86.6657 739.386,83.9938 722.88,86.4505 650.523,97.2268 599.37,200.336 536.15,185.742 c -78.056,-18.026 -79.36,-63.55 -154.611,-55.73 -2.596,0.272 -5.23,0.614 -7.87,1.133 -69.058,13.435 -125.175,77.302 -203.68,67.089 -7.192,-0.937 -14.474,-2.609 -21.799,-5.04 C 81.5755,171.116 12.3906,125.048 12.3906,125.048"
       stroke="url(#paint8_linear_692_372)"
       stroke-width="1.76"
       stroke-miterlimit="10"
       id="path9"
       style="stroke:url(#paint8_linear_692_372)" />
    <path
       d="m 1123.1,26.624 c 0,0 -15.62,147.095 -177.135,135.318 C 900.739,158.707 841.666,130.905 777.919,100.887 759.001,91.9783 740.911,89.566 724.31,92.2443 651.991,103.92 601.168,205.047 535.136,187.363 c -78.752,-21.09 -79.651,-61.346 -154.059,-51.64 -2.565,0.336 -5.167,0.734 -7.788,1.304 -68.976,14.905 -123.725,74.453 -203.218,63.506 -7.135,-0.982 -14.379,-2.647 -21.673,-5.034 C 81.9296,173.807 11.6304,135.375 11.6304,135.375"
       stroke="url(#paint9_linear_692_372)"
       stroke-width="1.76"
       stroke-miterlimit="10"
       id="path10"
       style="stroke:url(#paint9_linear_692_372)" />
    <path
       d="m 1128.7,29.4668 c 0,0 -15.98,145.1632 -179.328,135.4442 C 903.601,162.252 843.521,134.013 779.775,105.743 760.698,97.2841 742.463,95.125 725.761,98.0312 653.48,110.599 602.96,209.827 534.136,188.984 454.662,164.918 454.2,129.835 380.628,141.428 c -2.533,0.399 -5.104,0.854 -7.7,1.475 -68.887,16.386 -122.275,71.616 -202.755,59.928 -7.079,-1.026 -14.284,-2.684 -21.553,-5.027 C 82.2784,176.498 10.8711,145.708 10.8711,145.708"
       stroke="url(#paint10_linear_692_372)"
       stroke-width="1.76"
       stroke-miterlimit="10"
       id="path11"
       style="stroke:url(#paint10_linear_692_372)" />
    <path
       d="m 1134.29,32.3154 c 0,0 -16.34,143.2326 -181.518,135.5716 -46.322,-2.09 -107.402,-30.746 -171.149,-57.288 -19.235,-8.01 -37.622,-9.922 -54.419,-6.788 -72.25,13.455 -122.491,110.853 -194.069,86.781 -80.24,-26.985 -80.221,-56.953 -152.957,-43.466 -2.501,0.462 -5.04,0.975 -7.611,1.646 -68.799,17.88 -120.831,68.792 -202.287,56.344 -7.022,-1.07 -14.183,-2.722 -21.426,-5.021 C 82.6325,179.195 10.1108,156.034 10.1108,156.034"
       stroke="url(#paint11_linear_692_372)"
       stroke-width="1.76"
       stroke-miterlimit="10"
       id="path12"
       style="stroke:url(#paint11_linear_692_372)" />
    <path
       d="m 1139.89,35.1592 c 0,0 -16.7,141.3008 -183.718,135.6978 -46.872,-1.513 -108.966,-30.581 -172.706,-55.401 -19.399,-7.554 -37.932,-9.219 -54.824,-5.863 -72.218,14.335 -122.218,109.973 -196.513,82.614 -81.038,-29.847 -80.512,-54.762 -152.407,-39.376 -2.463,0.526 -4.983,1.102 -7.522,1.817 -68.71,19.388 -119.388,65.975 -201.824,52.767 -6.965,-1.114 -14.088,-2.76 -21.306,-5.008 C 82.9812,181.893 9.34521,166.374 9.34521,166.374"
       stroke="url(#paint12_linear_692_372)"
       stroke-width="1.76"
       stroke-miterlimit="10"
       id="path13"
       style="stroke:url(#paint12_linear_692_372)" />
    <path
       d="m 1145.48,38.0078 c 0,0 -17.06,139.3702 -185.908,135.8242 -47.423,-0.937 -110.53,-30.41 -174.257,-53.514 -19.558,-7.091 -38.242,-8.522 -55.23,-4.939 -72.186,15.215 -121.984,109.156 -198.963,78.442 -81.873,-32.664 -80.797,-52.571 -151.856,-35.292 -2.431,0.589 -4.919,1.222 -7.433,1.988 -68.615,20.907 -117.944,63.176 -201.362,49.184 -6.914,-1.159 -13.987,-2.799 -21.179,-5.002 C 83.3295,184.577 8.58545,176.694 8.58545,176.694"
       stroke="url(#paint13_linear_692_372)"
       stroke-width="1.76"
       stroke-miterlimit="10"
       id="path14"
       style="stroke:url(#paint13_linear_692_372)" />
    <path
       d="m 1151.08,40.8574 c 0,0 -17.42,137.4386 -188.102,135.9576 -47.974,-0.361 -112.1,-30.221 -175.808,-51.628 -19.723,-6.629 -38.547,-7.825 -55.635,-4.014 -72.155,16.089 -121.788,108.384 -201.407,74.276 -82.747,-35.451 -81.088,-50.387 -151.299,-31.202 -2.4,0.658 -4.856,1.342 -7.345,2.159 -68.52,22.439 -116.5,60.39 -200.9,45.606 -6.857,-1.203 -13.891,-2.837 -21.052,-4.996 C 83.7026,187.287 7.84424,187.04 7.84424,187.04"
       stroke="url(#paint14_linear_692_372)"
       stroke-width="1.76"
       stroke-miterlimit="10"
       id="path15"
       style="stroke:url(#paint14_linear_692_372)" />
    <path
       d="m 1156.67,43.7002 c 0,0 -17.77,135.5078 -190.298,136.0838 -48.525,0.216 -113.67,-30.018 -177.365,-49.747 -19.894,-6.16 -38.857,-7.129 -56.041,-3.09 -72.123,16.95 -121.629,107.656 -203.857,70.103 -83.659,-38.204 -81.38,-48.208 -150.748,-27.118 -2.368,0.722 -4.793,1.469 -7.256,2.33 -68.413,23.984 -115.063,57.611 -200.438,42.023 -6.8,-1.241 -13.79,-2.875 -20.932,-4.983 C 84.0323,189.959 7.06592,197.354 7.06592,197.354"
       stroke="url(#paint15_linear_692_372)"
       stroke-width="1.76"
       stroke-miterlimit="10"
       id="path16"
       style="stroke:url(#paint15_linear_692_372)" />
    <path
       d="m 1162.26,46.5488 c 0,0 -18.12,133.5772 -192.482,136.2112 -49.075,0.791 -115.247,-29.803 -178.917,-47.861 -20.058,-5.685 -39.167,-6.433 -56.445,-2.165 -72.098,17.817 -121.503,106.965 -206.302,65.937 -84.602,-40.94 -81.67,-46.024 -150.197,-23.028 -2.33,0.785 -4.729,1.589 -7.173,2.501 -68.305,25.541 -113.626,54.85 -199.976,38.445 -6.75,-1.279 -13.695,-2.912 -20.806,-4.977 C 84.3928,192.662 6.31201,207.693 6.31201,207.693"
       stroke="url(#paint16_linear_692_372)"
       stroke-width="1.76"
       stroke-miterlimit="10"
       id="path17"
       style="stroke:url(#paint16_linear_692_372)" />
    <path
       d="m 1167.86,49.3926 c 0,0 -18.48,131.6454 -194.675,136.3374 -49.627,1.368 -116.824,-29.575 -180.475,-45.973 -20.223,-5.211 -39.477,-5.743 -56.844,-1.241 -72.073,18.671 -121.421,106.313 -208.752,61.764 -85.584,-43.656 -81.962,-43.852 -149.646,-18.938 -2.299,0.849 -4.673,1.71 -7.085,2.672 -68.185,27.112 -112.195,52.096 -199.514,34.862 -6.692,-1.324 -13.594,-2.951 -20.685,-4.971 C 84.741,195.348 5.55225,218.008 5.55225,218.008"
       stroke="url(#paint17_linear_692_372)"
       stroke-width="1.76"
       stroke-miterlimit="10"
       id="path18"
       style="stroke:url(#paint17_linear_692_372)" />
    <path
       d="m 1173.45,52.2412 c 0,0 -18.84,129.7148 -196.872,136.4708 -50.177,1.943 -118.4,-29.328 -182.025,-44.087 -20.394,-4.73 -39.794,-5.053 -57.25,-0.317 -72.047,19.527 -121.37,105.693 -211.196,57.599 -86.59,-46.36 -82.259,-41.681 -149.095,-14.854 -2.267,0.911 -4.609,1.836 -6.996,2.843 -68.058,28.694 -110.765,49.36 -199.052,31.284 -6.642,-1.361 -13.499,-2.989 -20.558,-4.964 C 85.0956,198.044 4.79248,228.347 4.79248,228.347"
       stroke="url(#paint18_linear_692_372)"
       stroke-width="1.76"
       stroke-miterlimit="10"
       id="path19"
       style="stroke:url(#paint18_linear_692_372)" />
    <path
       d="m 1179.05,55.0908 c 0,0 -19.2,127.7832 -199.065,136.5972 -50.729,2.52 -119.97,-29.075 -183.577,-42.206 -20.559,-4.243 -40.104,-4.356 -57.655,0.607 -72.022,20.375 -121.357,105.092 -213.64,53.426 -87.628,-49.057 -82.607,-39.629 -148.544,-10.764 -2.235,0.969 -4.546,1.963 -6.908,3.014 -67.925,30.284 -109.34,46.639 -198.589,27.701 -6.585,-1.399 -13.404,-3.027 -20.438,-4.951 C 85.4502,200.736 4.03906,238.674 4.03906,238.674"
       stroke="url(#paint19_linear_692_372)"
       stroke-width="1.76"
       stroke-miterlimit="10"
       id="path20"
       style="stroke:url(#paint19_linear_692_372)" />
    <path
       d="m 1184.64,57.9336 c 0,0 -19.55,125.8524 -201.255,136.7234 -51.279,3.096 -121.547,-28.802 -185.135,-40.319 -20.729,-3.755 -40.427,-3.704 -58.06,1.532 -72.047,21.078 -121.376,104.521 -216.09,49.26 -88.692,-51.748 -82.905,-37.439 -147.993,-6.674 -2.204,1.032 -4.483,2.083 -6.82,3.185 -67.785,31.886 -107.921,43.928 -198.127,24.123 -6.534,-1.431 -13.302,-3.071 -20.311,-4.945 C 85.7984,203.433 3.27295,249.007 3.27295,249.007"
       stroke="url(#paint20_linear_692_372)"
       stroke-width="1.76"
       stroke-miterlimit="10"
       id="path21"
       style="stroke:url(#paint20_linear_692_372)" />
    <path
       d="m 1190.24,60.7822 c 0,0 -19.92,123.9208 -203.455,136.8498 -51.83,3.666 -123.117,-28.523 -186.686,-38.432 -20.894,-3.254 -40.737,-3.001 -58.465,2.457 -72.016,21.964 -121.421,103.964 -218.534,45.093 -89.788,-54.432 -83.197,-35.248 -147.443,-2.59 -2.172,1.096 -4.419,2.21 -6.73,3.356 -67.634,33.494 -106.503,41.231 -197.665,20.54 -6.477,-1.469 -13.208,-3.109 -20.192,-4.939 C 86.1467,206.123 2.51318,259.333 2.51318,259.333"
       stroke="url(#paint21_linear_692_372)"
       stroke-width="1.76"
       stroke-miterlimit="10"
       id="path22"
       style="stroke:url(#paint21_linear_692_372)" />
    <path
       d="m 1195.83,63.625 c 0,0 -20.27,121.996 -205.645,136.983 -52.381,4.242 -124.681,-28.226 -188.237,-36.552 -21.059,-2.754 -41.041,-2.305 -58.871,3.381 -71.983,22.844 -121.496,103.426 -220.984,40.921 -90.902,-57.117 -83.488,-33.057 -146.892,1.501 -2.134,1.158 -4.35,2.336 -6.648,3.526 -67.406,35.242 -105.129,38.686 -197.196,16.963 -6.427,-1.495 -13.107,-3.147 -20.065,-4.926 C 86.5013,208.814 1.75342,269.666 1.75342,269.666"
       stroke="url(#paint22_linear_692_372)"
       stroke-width="1.76"
       stroke-miterlimit="10"
       id="path23"
       style="stroke:url(#paint22_linear_692_372)" />
    <path
       d="m 1201.42,66.4746 c 0,0 -20.62,120.0654 -207.828,137.1094 -70.604,6.427 -177.474,-53.97 -249.071,-30.359 -71.958,23.73 -121.598,102.906 -223.428,36.754 -95.138,-61.808 -83.114,-28.815 -152.894,9.289 C 296.291,258.53 259.676,254.851 151.52,227.727 86.8559,211.512 1,280 1,280"
       stroke="url(#paint23_linear_692_372)"
       stroke-width="1.76"
       stroke-miterlimit="10"
       id="path24"
       style="stroke:url(#paint23_linear_692_372)" />
  </g>
  <g
     filter="url(#filter0_d_692_372)"
     id="g25">
    <path
       d="m 208.895,187.933 15.721,9.073 -15.721,9.079 z"
       fill="url(#paint24_linear_692_372)"
       id="path25"
       style="fill:url(#paint24_linear_692_372)" />
  </g>
  <g
     filter="url(#filter1_d_692_372)"
     id="g26">
    <path
       d="m 460.377,168.786 26.973,15.576 -26.973,15.575 z"
       fill="url(#paint25_linear_692_372)"
       id="path26"
       style="fill:url(#paint25_linear_692_372)" />
  </g>
  <g
     filter="url(#filter2_d_692_372)"
     id="g27">
    <path
       d="m 19.7012,162.062 15.7212,9.079 -15.7212,9.073 z"
       fill="url(#paint26_linear_692_372)"
       id="path27"
       style="fill:url(#paint26_linear_692_372)" />
  </g>
  <path
     d="M 35.4224,152.026 84.245,180.214 35.4224,208.403"
     stroke="url(#paint27_linear_692_372)"
     stroke-width="1.46"
     stroke-miterlimit="10"
     id="path28"
     style="stroke:url(#paint27_linear_692_372)" />
  <g
     filter="url(#filter3_d_692_372)"
     id="g29">
    <path
       d="m 280.112,189.914 39.16,22.61 -39.16,22.61 z"
       fill="url(#paint28_linear_692_372)"
       id="path29"
       style="fill:url(#paint28_linear_692_372)" />
  </g>
  <path
     d="M 326.421,205.351 272.963,174.484"
     stroke="url(#paint29_linear_692_372)"
     stroke-width="1.46"
     stroke-miterlimit="10"
     id="path30"
     style="stroke:url(#paint29_linear_692_372)" />
  <path
     d="m 1365.63,64.2588 41.58,24.0029 -41.58,24.0093 z"
     stroke="url(#paint30_linear_692_372)"
     stroke-width="1.55"
     stroke-miterlimit="10"
     id="path31"
     style="stroke:url(#paint30_linear_692_372)" />
  <g
     filter="url(#filter4_d_692_372)"
     id="g32">
    <path
       d="m 1324.76,64.2588 12.77,7.3699 -12.77,7.3636 z"
       fill="url(#paint31_linear_692_372)"
       id="path32"
       style="fill:url(#paint31_linear_692_372)" />
  </g>
  <g
     filter="url(#filter5_d_692_372)"
     id="g33">
    <path
       d="m 1071.33,165.816 16.68,9.637 -16.68,9.637 z"
       fill="url(#paint32_linear_692_372)"
       id="path33"
       style="fill:url(#paint32_linear_692_372)" />
  </g>
  <g
     filter="url(#filter7_d_692_372)"
     id="g35">
    <path
       d="m 1169.16,115.569 29.23,16.874 -29.23,16.88 z"
       fill="url(#paint34_linear_692_372)"
       id="path35"
       style="fill:url(#paint34_linear_692_372)" />
  </g>
  <path
     d="m 1247.14,109.035 73.19,42.257 -73.19,42.257"
     stroke="url(#paint36_linear_692_372)"
     stroke-width="1.55"
     stroke-miterlimit="10"
     id="path37"
     style="stroke:url(#paint36_linear_692_372)" />
  <path
     d="m 935.877,78.9922 29.245,16.8862 -29.245,16.8866"
     stroke="url(#paint37_linear_692_372)"
     stroke-width="1.55"
     stroke-miterlimit="10"
     id="path38"
     style="stroke:url(#paint37_linear_692_372)" />
  <path
     d="m 1350.02,132.937 56.76,-32.772"
     stroke="url(#paint38_linear_692_372)"
     stroke-width="1.55"
     stroke-miterlimit="10"
     id="path39"
     style="stroke:url(#paint38_linear_692_372)" />
  <defs
     id="defs134">
    <filter
       id="filter0_d_692_372"
       x="204.515"
       y="183.55299"
       width="33.241199"
       height="35.672298"
       filterUnits="userSpaceOnUse"
       color-interpolation-filters="sRGB">
      <feFlood
         flood-opacity="0"
         result="BackgroundImageFix"
         id="feFlood39" />
      <feColorMatrix
         in="SourceAlpha"
         type="matrix"
         values="0 0 0 0 0 0 0 0 0 0 0 0 0 0 0 0 0 0 127 0"
         result="hardAlpha"
         id="feColorMatrix39" />
      <feOffset
         dx="4.38"
         dy="4.38"
         id="feOffset39" />
      <feGaussianBlur
         stdDeviation="4.38"
         id="feGaussianBlur39" />
      <feColorMatrix
         type="matrix"
         values="0 0 0 0 0 0 0 0 0 0.662745 0 0 0 0 0.592157 0 0 0 0.75 0"
         id="feColorMatrix40" />
      <feBlend
         mode="normal"
         in2="BackgroundImageFix"
         result="effect1_dropShadow_692_372"
         id="feBlend40" />
      <feBlend
         mode="normal"
         in="SourceGraphic"
         in2="effect1_dropShadow_692_372"
         result="shape"
         id="feBlend41" />
    </filter>
    <filter
       id="filter1_d_692_372"
       x="455.99701"
       y="164.40601"
       width="44.492699"
       height="48.671398"
       filterUnits="userSpaceOnUse"
       color-interpolation-filters="sRGB">
      <feFlood
         flood-opacity="0"
         result="BackgroundImageFix"
         id="feFlood41" />
      <feColorMatrix
         in="SourceAlpha"
         type="matrix"
         values="0 0 0 0 0 0 0 0 0 0 0 0 0 0 0 0 0 0 127 0"
         result="hardAlpha"
         id="feColorMatrix41" />
      <feOffset
         dx="4.38"
         dy="4.38"
         id="feOffset41" />
      <feGaussianBlur
         stdDeviation="4.38"
         id="feGaussianBlur41" />
      <feColorMatrix
         type="matrix"
         values="0 0 0 0 0 0 0 0 0 0.662745 0 0 0 0 0.592157 0 0 0 0.75 0"
         id="feColorMatrix42" />
      <feBlend
         mode="normal"
         in2="BackgroundImageFix"
         result="effect1_dropShadow_692_372"
         id="feBlend42" />
      <feBlend
         mode="normal"
         in="SourceGraphic"
         in2="effect1_dropShadow_692_372"
         result="shape"
         id="feBlend43" />
    </filter>
    <filter
       id="filter2_d_692_372"
       x="15.3212"
       y="157.68201"
       width="33.241199"
       height="35.672298"
       filterUnits="userSpaceOnUse"
       color-interpolation-filters="sRGB">
      <feFlood
         flood-opacity="0"
         result="BackgroundImageFix"
         id="feFlood43" />
      <feColorMatrix
         in="SourceAlpha"
         type="matrix"
         values="0 0 0 0 0 0 0 0 0 0 0 0 0 0 0 0 0 0 127 0"
         result="hardAlpha"
         id="feColorMatrix43" />
      <feOffset
         dx="4.38"
         dy="4.38"
         id="feOffset43" />
      <feGaussianBlur
         stdDeviation="4.38"
         id="feGaussianBlur43" />
      <feColorMatrix
         type="matrix"
         values="0 0 0 0 0 0 0 0 0 0.662745 0 0 0 0 0.592157 0 0 0 0.75 0"
         id="feColorMatrix44" />
      <feBlend
         mode="normal"
         in2="BackgroundImageFix"
         result="effect1_dropShadow_692_372"
         id="feBlend44" />
      <feBlend
         mode="normal"
         in="SourceGraphic"
         in2="effect1_dropShadow_692_372"
         result="shape"
         id="feBlend45" />
    </filter>
    <filter
       id="filter3_d_692_372"
       x="274.272"
       y="184.07401"
       width="62.520599"
       height="68.579697"
       filterUnits="userSpaceOnUse"
       color-interpolation-filters="sRGB">
      <feFlood
         flood-opacity="0"
         result="BackgroundImageFix"
         id="feFlood45" />
      <feColorMatrix
         in="SourceAlpha"
         type="matrix"
         values="0 0 0 0 0 0 0 0 0 0 0 0 0 0 0 0 0 0 127 0"
         result="hardAlpha"
         id="feColorMatrix45" />
      <feOffset
         dx="5.84"
         dy="5.84"
         id="feOffset45" />
      <feGaussianBlur
         stdDeviation="5.84"
         id="feGaussianBlur45" />
      <feColorMatrix
         type="matrix"
         values="0 0 0 0 0 0 0 0 0 0.662745 0 0 0 0 0.592157 0 0 0 0.75 0"
         id="feColorMatrix46" />
      <feBlend
         mode="normal"
         in2="BackgroundImageFix"
         result="effect1_dropShadow_692_372"
         id="feBlend46" />
      <feBlend
         mode="normal"
         in="SourceGraphic"
         in2="effect1_dropShadow_692_372"
         result="shape"
         id="feBlend47" />
    </filter>
    <filter
       id="filter4_d_692_372"
       x="1320.11"
       y="59.608799"
       width="31.364599"
       height="33.333401"
       filterUnits="userSpaceOnUse"
       color-interpolation-filters="sRGB">
      <feFlood
         flood-opacity="0"
         result="BackgroundImageFix"
         id="feFlood47" />
      <feColorMatrix
         in="SourceAlpha"
         type="matrix"
         values="0 0 0 0 0 0 0 0 0 0 0 0 0 0 0 0 0 0 127 0"
         result="hardAlpha"
         id="feColorMatrix47" />
      <feOffset
         dx="4.65"
         dy="4.65"
         id="feOffset47" />
      <feGaussianBlur
         stdDeviation="4.65"
         id="feGaussianBlur47" />
      <feColorMatrix
         type="matrix"
         values="0 0 0 0 0 0 0 0 0 0.662745 0 0 0 0 0.592157 0 0 0 0.75 0"
         id="feColorMatrix48" />
      <feBlend
         mode="normal"
         in2="BackgroundImageFix"
         result="effect1_dropShadow_692_372"
         id="feBlend48" />
      <feBlend
         mode="normal"
         in="SourceGraphic"
         in2="effect1_dropShadow_692_372"
         result="shape"
         id="feBlend49" />
    </filter>
    <filter
       id="filter5_d_692_372"
       x="1066.6801"
       y="161.166"
       width="35.2836"
       height="37.873402"
       filterUnits="userSpaceOnUse"
       color-interpolation-filters="sRGB">
      <feFlood
         flood-opacity="0"
         result="BackgroundImageFix"
         id="feFlood49" />
      <feColorMatrix
         in="SourceAlpha"
         type="matrix"
         values="0 0 0 0 0 0 0 0 0 0 0 0 0 0 0 0 0 0 127 0"
         result="hardAlpha"
         id="feColorMatrix49" />
      <feOffset
         dx="4.65"
         dy="4.65"
         id="feOffset49" />
      <feGaussianBlur
         stdDeviation="4.65"
         id="feGaussianBlur49" />
      <feColorMatrix
         type="matrix"
         values="0 0 0 0 0 0 0 0 0 0.662745 0 0 0 0 0.592157 0 0 0 0.75 0"
         id="feColorMatrix50" />
      <feBlend
         mode="normal"
         in2="BackgroundImageFix"
         result="effect1_dropShadow_692_372"
         id="feBlend50" />
      <feBlend
         mode="normal"
         in="SourceGraphic"
         in2="effect1_dropShadow_692_372"
         result="shape"
         id="feBlend51" />
    </filter>
    <filter
       id="filter6_d_692_372"
       x="1563"
       y="1.4154299"
       width="35.289902"
       height="37.873402"
       filterUnits="userSpaceOnUse"
       color-interpolation-filters="sRGB">
      <feFlood
         flood-opacity="0"
         result="BackgroundImageFix"
         id="feFlood51" />
      <feColorMatrix
         in="SourceAlpha"
         type="matrix"
         values="0 0 0 0 0 0 0 0 0 0 0 0 0 0 0 0 0 0 127 0"
         result="hardAlpha"
         id="feColorMatrix51" />
      <feOffset
         dx="4.65"
         dy="4.65"
         id="feOffset51" />
      <feGaussianBlur
         stdDeviation="4.65"
         id="feGaussianBlur51" />
      <feColorMatrix
         type="matrix"
         values="0 0 0 0 0 0 0 0 0 0.662745 0 0 0 0 0.592157 0 0 0 0.75 0"
         id="feColorMatrix52" />
      <feBlend
         mode="normal"
         in2="BackgroundImageFix"
         result="effect1_dropShadow_692_372"
         id="feBlend52" />
      <feBlend
         mode="normal"
         in="SourceGraphic"
         in2="effect1_dropShadow_692_372"
         result="shape"
         id="feBlend53" />
    </filter>
    <filter
       id="filter7_d_692_372"
       x="1162.96"
       y="109.369"
       width="54.0266"
       height="58.553902"
       filterUnits="userSpaceOnUse"
       color-interpolation-filters="sRGB">
      <feFlood
         flood-opacity="0"
         result="BackgroundImageFix"
         id="feFlood53" />
      <feColorMatrix
         in="SourceAlpha"
         type="matrix"
         values="0 0 0 0 0 0 0 0 0 0 0 0 0 0 0 0 0 0 127 0"
         result="hardAlpha"
         id="feColorMatrix53" />
      <feOffset
         dx="6.2"
         dy="6.2"
         id="feOffset53" />
      <feGaussianBlur
         stdDeviation="6.2"
         id="feGaussianBlur53" />
      <feColorMatrix
         type="matrix"
         values="0 0 0 0 0 0 0 0 0 0.662745 0 0 0 0 0.592157 0 0 0 0.75 0"
         id="feColorMatrix54" />
      <feBlend
         mode="normal"
         in2="BackgroundImageFix"
         result="effect1_dropShadow_692_372"
         id="feBlend54" />
      <feBlend
         mode="normal"
         in="SourceGraphic"
         in2="effect1_dropShadow_692_372"
         result="shape"
         id="feBlend55" />
    </filter>
    <filter
       id="filter8_d_692_372"
       x="1494.36"
       y="138.032"
       width="43.7616"
       height="47.655701"
       filterUnits="userSpaceOnUse"
       color-interpolation-filters="sRGB">
      <feFlood
         flood-opacity="0"
         result="BackgroundImageFix"
         id="feFlood55" />
      <feColorMatrix
         in="SourceAlpha"
         type="matrix"
         values="0 0 0 0 0 0 0 0 0 0 0 0 0 0 0 0 0 0 127 0"
         result="hardAlpha"
         id="feColorMatrix55" />
      <feOffset
         dx="4.65"
         dy="4.65"
         id="feOffset55" />
      <feGaussianBlur
         stdDeviation="4.65"
         id="feGaussianBlur55" />
      <feColorMatrix
         type="matrix"
         values="0 0 0 0 0 0 0 0 0 0.662745 0 0 0 0 0.592157 0 0 0 0.75 0"
         id="feColorMatrix56" />
      <feBlend
         mode="normal"
         in2="BackgroundImageFix"
         result="effect1_dropShadow_692_372"
         id="feBlend56" />
      <feBlend
         mode="normal"
         in="SourceGraphic"
         in2="effect1_dropShadow_692_372"
         result="shape"
         id="feBlend57" />
    </filter>
    <linearGradient
       id="paint0_linear_692_372"
       x1="18.593399"
       y1="88.367996"
       x2="1072.8"
       y2="93.378601"
       gradientUnits="userSpaceOnUse">
      <stop
         stop-color="#14857F"
         id="stop57" />
      <stop
         offset="0.98"
         stop-color="#F9AF19"
         id="stop58" />
    </linearGradient>
    <linearGradient
       id="paint1_linear_692_372"
       x1="17.8344"
       y1="90.981499"
       x2="1078.4"
       y2="96.066498"
       gradientUnits="userSpaceOnUse">
      <stop
         stop-color="#14857F"
         id="stop59" />
      <stop
         offset="0.98"
         stop-color="#F9AF19"
         id="stop60" />
    </linearGradient>
    <linearGradient
       id="paint2_linear_692_372"
       x1="17.075399"
       y1="93.5812"
       x2="1083.99"
       y2="98.7416"
       gradientUnits="userSpaceOnUse">
      <stop
         stop-color="#14857F"
         id="stop61" />
      <stop
         offset="0.98"
         stop-color="#F9AF19"
         id="stop62" />
    </linearGradient>
    <linearGradient
       id="paint3_linear_692_372"
       x1="16.316401"
       y1="96.201897"
       x2="1089.59"
       y2="101.438"
       gradientUnits="userSpaceOnUse">
      <stop
         stop-color="#14857F"
         id="stop63" />
      <stop
         offset="0.98"
         stop-color="#F9AF19"
         id="stop64" />
    </linearGradient>
    <linearGradient
       id="paint4_linear_692_372"
       x1="15.5575"
       y1="98.8284"
       x2="1095.1801"
       y2="104.14"
       gradientUnits="userSpaceOnUse">
      <stop
         stop-color="#14857F"
         id="stop65" />
      <stop
         offset="0.98"
         stop-color="#F9AF19"
         id="stop66" />
    </linearGradient>
    <linearGradient
       id="paint5_linear_692_372"
       x1="14.7985"
       y1="101.461"
       x2="1100.77"
       y2="106.848"
       gradientUnits="userSpaceOnUse">
      <stop
         stop-color="#14857F"
         id="stop67" />
      <stop
         offset="0.98"
         stop-color="#F9AF19"
         id="stop68" />
    </linearGradient>
    <linearGradient
       id="paint6_linear_692_372"
       x1="14.0395"
       y1="104.112"
       x2="1106.36"
       y2="109.575"
       gradientUnits="userSpaceOnUse">
      <stop
         stop-color="#14857F"
         id="stop69" />
      <stop
         offset="0.98"
         stop-color="#F9AF19"
         id="stop70" />
    </linearGradient>
    <linearGradient
       id="paint7_linear_692_372"
       x1="13.2805"
       y1="106.769"
       x2="1111.96"
       y2="112.308"
       gradientUnits="userSpaceOnUse">
      <stop
         stop-color="#14857F"
         id="stop71" />
      <stop
         offset="0.98"
         stop-color="#F9AF19"
         id="stop72" />
    </linearGradient>
    <linearGradient
       id="paint8_linear_692_372"
       x1="12.5279"
       y1="109.442"
       x2="1117.5601"
       y2="115.057"
       gradientUnits="userSpaceOnUse">
      <stop
         stop-color="#14857F"
         id="stop73" />
      <stop
         offset="0.98"
         stop-color="#F9AF19"
         id="stop74" />
    </linearGradient>
    <linearGradient
       id="paint9_linear_692_372"
       x1="11.7684"
       y1="112.137"
       x2="1123.15"
       y2="117.827"
       gradientUnits="userSpaceOnUse">
      <stop
         stop-color="#14857F"
         id="stop75" />
      <stop
         offset="0.98"
         stop-color="#F9AF19"
         id="stop76" />
    </linearGradient>
    <linearGradient
       id="paint10_linear_692_372"
       x1="11.0099"
       y1="114.848"
       x2="1128.74"
       y2="120.612"
       gradientUnits="userSpaceOnUse">
      <stop
         stop-color="#14857F"
         id="stop77" />
      <stop
         offset="0.98"
         stop-color="#F9AF19"
         id="stop78" />
    </linearGradient>
    <linearGradient
       id="paint11_linear_692_372"
       x1="10.2505"
       y1="117.582"
       x2="1134.33"
       y2="123.419"
       gradientUnits="userSpaceOnUse">
      <stop
         stop-color="#14857F"
         id="stop79" />
      <stop
         offset="0.98"
         stop-color="#F9AF19"
         id="stop80" />
    </linearGradient>
    <linearGradient
       id="paint12_linear_692_372"
       x1="9.4856396"
       y1="120.347"
       x2="1139.9301"
       y2="126.256"
       gradientUnits="userSpaceOnUse">
      <stop
         stop-color="#14857F"
         id="stop81" />
      <stop
         offset="0.98"
         stop-color="#F9AF19"
         id="stop82" />
    </linearGradient>
    <linearGradient
       id="paint13_linear_692_372"
       x1="8.7266703"
       y1="123.146"
       x2="1145.52"
       y2="129.125"
       gradientUnits="userSpaceOnUse">
      <stop
         stop-color="#14857F"
         id="stop83" />
      <stop
         offset="0.98"
         stop-color="#F9AF19"
         id="stop84" />
    </linearGradient>
    <linearGradient
       id="paint14_linear_692_372"
       x1="7.9862399"
       y1="125.999"
       x2="1151.12"
       y2="132.045"
       gradientUnits="userSpaceOnUse">
      <stop
         stop-color="#14857F"
         id="stop85" />
      <stop
         offset="0.98"
         stop-color="#F9AF19"
         id="stop86" />
    </linearGradient>
    <linearGradient
       id="paint15_linear_692_372"
       x1="7.2087102"
       y1="128.881"
       x2="1156.71"
       y2="134.991"
       gradientUnits="userSpaceOnUse">
      <stop
         stop-color="#14857F"
         id="stop87" />
      <stop
         offset="0.98"
         stop-color="#F9AF19"
         id="stop88" />
    </linearGradient>
    <linearGradient
       id="paint16_linear_692_372"
       x1="6.4555998"
       y1="131.842"
       x2="1162.3101"
       y2="138.01199"
       gradientUnits="userSpaceOnUse">
      <stop
         stop-color="#14857F"
         id="stop89" />
      <stop
         offset="0.98"
         stop-color="#F9AF19"
         id="stop90" />
    </linearGradient>
    <linearGradient
       id="paint17_linear_692_372"
       x1="5.69662"
       y1="134.866"
       x2="1167.9"
       y2="141.091"
       gradientUnits="userSpaceOnUse">
      <stop
         stop-color="#14857F"
         id="stop91" />
      <stop
         offset="0.98"
         stop-color="#F9AF19"
         id="stop92" />
    </linearGradient>
    <linearGradient
       id="paint18_linear_692_372"
       x1="4.9376402"
       y1="138.175"
       x2="1173.5"
       y2="144.43401"
       gradientUnits="userSpaceOnUse">
      <stop
         stop-color="#14857F"
         id="stop93" />
      <stop
         offset="0.98"
         stop-color="#F9AF19"
         id="stop94" />
    </linearGradient>
    <linearGradient
       id="paint19_linear_692_372"
       x1="4.18501"
       y1="144.673"
       x2="1179.1"
       y2="150.743"
       gradientUnits="userSpaceOnUse">
      <stop
         stop-color="#14857F"
         id="stop95" />
      <stop
         offset="0.98"
         stop-color="#F9AF19"
         id="stop96" />
    </linearGradient>
    <linearGradient
       id="paint20_linear_692_372"
       x1="3.4196899"
       y1="151.17101"
       x2="1184.6899"
       y2="157.06599"
       gradientUnits="userSpaceOnUse">
      <stop
         stop-color="#14857F"
         id="stop97" />
      <stop
         offset="0.98"
         stop-color="#F9AF19"
         id="stop98" />
    </linearGradient>
    <linearGradient
       id="paint21_linear_692_372"
       x1="2.6607101"
       y1="157.668"
       x2="1190.29"
       y2="163.403"
       gradientUnits="userSpaceOnUse">
      <stop
         stop-color="#14857F"
         id="stop99" />
      <stop
         offset="0.98"
         stop-color="#F9AF19"
         id="stop100" />
    </linearGradient>
    <linearGradient
       id="paint22_linear_692_372"
       x1="1.90174"
       y1="164.166"
       x2="1195.88"
       y2="169.75101"
       gradientUnits="userSpaceOnUse">
      <stop
         stop-color="#14857F"
         id="stop101" />
      <stop
         offset="0.98"
         stop-color="#F9AF19"
         id="stop102" />
    </linearGradient>
    <linearGradient
       id="paint23_linear_692_372"
       x1="1.14911"
       y1="170.668"
       x2="1201.48"
       y2="176.11501"
       gradientUnits="userSpaceOnUse">
      <stop
         stop-color="#14857F"
         id="stop103" />
      <stop
         offset="0.98"
         stop-color="#F9AF19"
         id="stop104" />
    </linearGradient>
    <linearGradient
       id="paint24_linear_692_372"
       x1="208.896"
       y1="196.78999"
       x2="224.617"
       y2="196.80099"
       gradientUnits="userSpaceOnUse">
      <stop
         stop-color="#14857F"
         id="stop105" />
      <stop
         offset="0.98"
         stop-color="#F9AF19"
         id="stop106" />
    </linearGradient>
    <linearGradient
       id="paint25_linear_692_372"
       x1="460.38101"
       y1="183.987"
       x2="487.35199"
       y2="184.006"
       gradientUnits="userSpaceOnUse">
      <stop
         stop-color="#14857F"
         id="stop107" />
      <stop
         offset="0.98"
         stop-color="#F9AF19"
         id="stop108" />
    </linearGradient>
    <linearGradient
       id="paint26_linear_692_372"
       x1="16.826599"
       y1="164.942"
       x2="29.223801"
       y2="177.34"
       gradientUnits="userSpaceOnUse">
      <stop
         stop-color="#44BABF"
         id="stop109" />
      <stop
         offset="0.98"
         stop-color="#0A678E"
         id="stop110" />
    </linearGradient>
    <linearGradient
       id="paint27_linear_692_372"
       x1="35.428398"
       y1="179.536"
       x2="84.248199"
       y2="179.57001"
       gradientUnits="userSpaceOnUse">
      <stop
         stop-color="#14857F"
         id="stop111" />
      <stop
         offset="0.98"
         stop-color="#F9AF19"
         id="stop112" />
    </linearGradient>
    <linearGradient
       id="paint28_linear_692_372"
       x1="280.117"
       y1="211.98"
       x2="319.27499"
       y2="212.007"
       gradientUnits="userSpaceOnUse">
      <stop
         stop-color="#DC267F"
         id="stop113" />
      <stop
         offset="0.98"
         stop-color="#785EF0"
         id="stop114" />
    </linearGradient>
    <linearGradient
       id="paint29_linear_692_372"
       x1="272.97"
       y1="189.54601"
       x2="326.42401"
       y2="189.621"
       gradientUnits="userSpaceOnUse">
      <stop
         stop-color="#DC267F"
         id="stop115" />
      <stop
         offset="0.98"
         stop-color="#785EF0"
         id="stop116" />
    </linearGradient>
    <linearGradient
       id="paint30_linear_692_372"
       x1="1365.64"
       y1="87.687103"
       x2="1407.21"
       y2="87.716202"
       gradientUnits="userSpaceOnUse">
      <stop
         stop-color="#DC267F"
         id="stop117" />
      <stop
         offset="0.98"
         stop-color="#785EF0"
         id="stop118" />
    </linearGradient>
    <linearGradient
       id="paint31_linear_692_372"
       x1="1322.42"
       y1="66.5951"
       x2="1332.49"
       y2="76.6623"
       gradientUnits="userSpaceOnUse">
      <stop
         stop-color="#44BABF"
         id="stop119" />
      <stop
         offset="0.98"
         stop-color="#0A678E"
         id="stop120" />
    </linearGradient>
    <linearGradient
       id="paint32_linear_692_372"
       x1="1071.33"
       y1="175.22099"
       x2="1088.01"
       y2="175.233"
       gradientUnits="userSpaceOnUse">
      <stop
         stop-color="#DC267F"
         id="stop121" />
      <stop
         offset="0.98"
         stop-color="#785EF0"
         id="stop122" />
    </linearGradient>
    <linearGradient
       id="paint33_linear_692_372"
       x1="1564.59"
       y1="9.11724"
       x2="1577.75"
       y2="22.2806"
       gradientUnits="userSpaceOnUse">
      <stop
         stop-color="#F59D27"
         id="stop123" />
      <stop
         offset="1"
         stop-color="#44BABF"
         id="stop124" />
    </linearGradient>
    <linearGradient
       id="paint34_linear_692_372"
       x1="1169.17"
       y1="132.03999"
       x2="1198.39"
       y2="132.06"
       gradientUnits="userSpaceOnUse">
      <stop
         stop-color="#14857F"
         id="stop125" />
      <stop
         offset="0.98"
         stop-color="#F9AF19"
         id="stop126" />
    </linearGradient>
    <linearGradient
       id="paint35_linear_692_372"
       x1="1494.4"
       y1="147.285"
       x2="1514.25"
       y2="167.12801"
       gradientUnits="userSpaceOnUse">
      <stop
         stop-color="#F59D27"
         id="stop127" />
      <stop
         offset="1"
         stop-color="#44BABF"
         id="stop128" />
    </linearGradient>
    <linearGradient
       id="paint36_linear_692_372"
       x1="1247.15"
       y1="150.27499"
       x2="1320.33"
       y2="150.326"
       gradientUnits="userSpaceOnUse">
      <stop
         stop-color="#14857F"
         id="stop129" />
      <stop
         offset="0.98"
         stop-color="#F9AF19"
         id="stop130" />
    </linearGradient>
    <linearGradient
       id="paint37_linear_692_372"
       x1="935.88098"
       y1="95.472"
       x2="965.12402"
       y2="95.4925"
       gradientUnits="userSpaceOnUse">
      <stop
         stop-color="#14857F"
         id="stop131" />
      <stop
         offset="0.98"
         stop-color="#F9AF19"
         id="stop132" />
    </linearGradient>
    <linearGradient
       id="paint38_linear_692_372"
       x1="1350.03"
       y1="116.157"
       x2="1406.78"
       y2="116.236"
       gradientUnits="userSpaceOnUse">
      <stop
         stop-color="#14857F"
         id="stop133" />
      <stop
         offset="0.98"
         stop-color="#F9AF19"
         id="stop134" />
    </linearGradient>
  </defs>
</svg>
