<?xml version="1.0" encoding="UTF-8"?>
<!DOCTYPE svg PUBLIC "-//W3C//DTD SVG 1.1//EN" "http://www.w3.org/Graphics/SVG/1.1/DTD/svg11.dtd">
<svg xmlns="http://www.w3.org/2000/svg" version="1.1" width="292px" height="374px" style="shape-rendering:geometricPrecision; text-rendering:geometricPrecision; image-rendering:optimizeQuality; fill-rule:evenodd; clip-rule:evenodd" xmlns:xlink="http://www.w3.org/1999/xlink">
<g><path style="opacity:1" fill="#0c334b" d="M -0.5,-0.5 C 96.8333,-0.5 194.167,-0.5 291.5,-0.5C 291.5,124.167 291.5,248.833 291.5,373.5C 194.167,373.5 96.8333,373.5 -0.5,373.5C -0.5,248.833 -0.5,124.167 -0.5,-0.5 Z"/></g>
<g><path style="opacity:1" fill="#fada59" d="M 168.5,50.5 C 162.987,52.9835 161.32,56.9835 163.5,62.5C 164.505,66.5207 164.505,70.5207 163.5,74.5C 158.659,71.5788 153.659,68.9121 148.5,66.5C 143.341,68.9121 138.341,71.5788 133.5,74.5C 132.387,70.5065 132.387,66.5065 133.5,62.5C 135.68,56.9835 134.013,52.9835 128.5,50.5C 126.521,47.8544 124.188,45.5211 121.5,43.5C 127.833,42.1667 134.167,40.8333 140.5,39.5C 142.912,34.3413 145.579,29.3413 148.5,24.5C 151.421,29.3413 154.088,34.3413 156.5,39.5C 162.5,41.1394 168.5,42.6394 174.5,44C 172.294,46.0367 170.294,48.2034 168.5,50.5 Z"/></g>
<g><path style="opacity:1" fill="#fbdb5a" d="M 212.5,79.5 C 212.808,81.924 212.474,84.2573 211.5,86.5C 207.833,83.8333 204.167,81.1667 200.5,78.5C 198.22,79.7019 195.886,80.7019 193.5,81.5C 191.742,81.8769 190.075,82.5435 188.5,83.5C 187.566,81.9052 187.566,80.2385 188.5,78.5C 189.59,75.7328 190.59,72.8995 191.5,70C 188.94,66.3592 186.273,62.8592 183.5,59.5C 188.167,58.8333 192.833,58.1667 197.5,57.5C 200.11,53.8751 202.777,50.2085 205.5,46.5C 207.494,50.6474 208.994,54.9808 210,59.5C 214.439,61.2584 218.939,62.9251 223.5,64.5C 220.09,67.288 216.59,69.9546 213,72.5C 212.503,74.8098 212.337,77.1432 212.5,79.5 Z"/></g>
<g><path style="opacity:1" fill="#fadb5a" d="M 99.5,57.5 C 104.167,58.1667 108.833,58.8333 113.5,59.5C 110.299,62.5417 107.633,66.0417 105.5,70C 106.41,72.8995 107.41,75.7328 108.5,78.5C 110.11,84.1981 108.443,85.1981 103.5,81.5C 100.681,79.9029 97.6812,79.4029 94.5,80C 91.5,82.1667 88.5,84.3333 85.5,86.5C 84.5258,84.2573 84.1924,81.924 84.5,79.5C 84.6633,77.1432 84.4966,74.8098 84,72.5C 80.4101,69.9546 76.9101,67.288 73.5,64.5C 77.7509,62.6382 82.0843,60.9716 86.5,59.5C 87.9732,55.0787 89.6398,50.7454 91.5,46.5C 94.2233,50.2085 96.8899,53.8751 99.5,57.5 Z"/></g>
<g><path style="opacity:1" fill="#b0d5fa" d="M 128.5,50.5 C 134.013,52.9835 135.68,56.9835 133.5,62.5C 125.025,67.5732 116.692,72.9065 108.5,78.5C 107.41,75.7328 106.41,72.8995 105.5,70C 107.633,66.0417 110.299,62.5417 113.5,59.5C 114.167,59.5 114.5,59.1667 114.5,58.5C 119.167,55.8333 123.833,53.1667 128.5,50.5 Z"/></g>
<g><path style="opacity:1" fill="#afd4f9" d="M 168.5,50.5 C 173.167,53.1667 177.833,55.8333 182.5,58.5C 182.5,59.1667 182.833,59.5 183.5,59.5C 186.273,62.8592 188.94,66.3592 191.5,70C 190.59,72.8995 189.59,75.7328 188.5,78.5C 180.308,72.9065 171.975,67.5732 163.5,62.5C 161.32,56.9835 162.987,52.9835 168.5,50.5 Z"/></g>
<g><path style="opacity:1" fill="#465c4f" d="M 99.5,57.5 C 104.695,57.1795 109.695,57.5128 114.5,58.5C 114.5,59.1667 114.167,59.5 113.5,59.5C 108.833,58.8333 104.167,58.1667 99.5,57.5 Z"/></g>
<g><path style="opacity:1" fill="#475d4f" d="M 197.5,57.5 C 192.833,58.1667 188.167,58.8333 183.5,59.5C 182.833,59.5 182.5,59.1667 182.5,58.5C 187.305,57.5128 192.305,57.1795 197.5,57.5 Z"/></g>
<g><path style="opacity:1" fill="#0f344b" d="M 133.5,62.5 C 132.387,66.5065 132.387,70.5065 133.5,74.5C 138.341,71.5788 143.341,68.9121 148.5,66.5C 153.659,68.9121 158.659,71.5788 163.5,74.5C 164.505,70.5207 164.505,66.5207 163.5,62.5C 171.975,67.5732 180.308,72.9065 188.5,78.5C 187.566,80.2385 187.566,81.9052 188.5,83.5C 190.075,82.5435 191.742,81.8769 193.5,81.5C 213.763,95.2471 233.93,109.247 254,123.5C 255,125.5 256,127.5 257,129.5C 257.667,175.833 257.667,222.167 257,268.5C 254.406,275.428 249.573,279.928 242.5,282C 179.833,282.667 117.167,282.667 54.5,282C 47.4269,279.928 42.5936,275.428 40,268.5C 39.3333,222.167 39.3333,175.833 40,129.5C 41.3957,125.208 43.8957,121.708 47.5,119C 66.4045,106.725 85.0712,94.2247 103.5,81.5C 108.443,85.1981 110.11,84.1981 108.5,78.5C 116.692,72.9065 125.025,67.5732 133.5,62.5 Z"/></g>
<g><path style="opacity:1" fill="#aed4fa" d="M 212.5,79.5 C 227.976,89.4081 243.31,99.5748 258.5,110C 264.376,114.88 268.209,121.047 270,128.5C 270.976,176.538 270.642,224.538 269,272.5C 264.441,285.061 255.608,292.561 242.5,295C 179.5,295.667 116.5,295.667 53.5,295C 39.7752,291.609 30.9419,283.109 27,269.5C 26.3333,222.5 26.3333,175.5 27,128.5C 28.7907,121.047 32.6241,114.88 38.5,110C 53.6902,99.5748 69.0235,89.4081 84.5,79.5C 84.1924,81.924 84.5258,84.2573 85.5,86.5C 88.5,84.3333 91.5,82.1667 94.5,80C 97.6812,79.4029 100.681,79.9029 103.5,81.5C 85.0712,94.2247 66.4045,106.725 47.5,119C 43.8957,121.708 41.3957,125.208 40,129.5C 39.3333,175.833 39.3333,222.167 40,268.5C 42.5936,275.428 47.4269,279.928 54.5,282C 117.167,282.667 179.833,282.667 242.5,282C 249.573,279.928 254.406,275.428 257,268.5C 257.667,222.167 257.667,175.833 257,129.5C 256,127.5 255,125.5 254,123.5C 233.93,109.247 213.763,95.2471 193.5,81.5C 195.886,80.7019 198.22,79.7019 200.5,78.5C 204.167,81.1667 207.833,83.8333 211.5,86.5C 212.474,84.2573 212.808,81.924 212.5,79.5 Z"/></g>
<g><path style="opacity:1" fill="#f8d958" d="M 142.5,82.5 C 163.226,88.5284 183.559,95.6951 203.5,104C 194.461,107.402 185.461,110.902 176.5,114.5C 176.962,108.132 174.295,103.632 168.5,101C 153.924,95.5338 139.257,95.2005 124.5,100C 117.228,102.105 113.561,106.938 113.5,114.5C 104.5,111 95.5,107.5 86.5,104C 105.305,96.9033 123.972,89.7366 142.5,82.5 Z"/></g>
<g><path style="opacity:1" fill="#fbdb58" d="M 133.5,103.5 C 144.714,102.835 155.714,104.001 166.5,107C 167.025,107.692 167.692,108.192 168.5,108.5C 169.833,115.167 169.833,121.833 168.5,128.5C 155.378,124.444 142.045,123.61 128.5,126C 126.112,126.303 123.945,127.137 122,128.5C 121.333,121.833 121.333,115.167 122,108.5C 125.86,106.648 129.693,104.981 133.5,103.5 Z"/></g>
<g><path style="opacity:1" fill="#eed258" d="M 211.5,124.5 C 215.029,123.889 216.862,125.223 217,128.5C 211.648,131.877 209.815,130.544 211.5,124.5 Z"/></g>
<g><path style="opacity:1" fill="#f4d658" d="M 131.5,131.5 C 140.173,131.334 148.84,131.5 157.5,132C 161.724,132.785 165.724,134.118 169.5,136C 166.343,137.578 163.009,138.578 159.5,139C 149.5,139.667 139.5,139.667 129.5,139C 126.459,138.424 123.792,137.258 121.5,135.5C 124.986,134.287 128.32,132.954 131.5,131.5 Z"/></g>
<g><path style="opacity:1" fill="#fbdb58" d="M 143.5,160.5 C 161,159.832 169.166,168.165 168,185.5C 164.443,197.035 156.609,202.202 144.5,201C 129.578,195.503 125.078,185.336 131,170.5C 133.887,165.434 138.054,162.101 143.5,160.5 Z"/></g>
<g><path style="opacity:1" fill="#fada58" d="M 95.5,170.5 C 110.526,169.351 116.36,176.017 113,190.5C 106.923,198.083 99.7564,199.25 91.5,194C 85.0998,184.722 86.4331,176.888 95.5,170.5 Z"/></g>
<g><path style="opacity:1" fill="#fada58" d="M 191.5,170.5 C 206.088,169.908 211.588,176.575 208,190.5C 204.061,196.373 198.561,198.54 191.5,197C 181.947,191.441 180.114,183.941 186,174.5C 187.812,173.023 189.645,171.69 191.5,170.5 Z"/></g>
<g><path style="opacity:1" fill="#f5d658" d="M 84.5,205.5 C 95.5202,205.168 106.52,205.501 117.5,206.5C 109.556,211.723 105.223,219.057 104.5,228.5C 98.7898,228.529 93.1231,228.029 87.5,227C 86.7734,225.601 86.2734,224.101 86,222.5C 81.848,220.508 80.0146,221.841 80.5,226.5C 78.8333,226.5 77.1667,226.5 75.5,226.5C 72.9537,216.813 75.9537,209.813 84.5,205.5 Z"/></g>
<g><path style="opacity:1" fill="#f6d858" d="M 210.5,223.5 C 209.596,224.209 209.263,225.209 209.5,226.5C 207.585,226.216 205.919,226.549 204.5,227.5C 200.481,227.646 196.481,227.979 192.5,228.5C 191.777,219.057 187.444,211.723 179.5,206.5C 190.485,205.334 201.485,205.168 212.5,206C 221.06,210.119 224.06,216.952 221.5,226.5C 219.833,226.5 218.167,226.5 216.5,226.5C 217.158,222.323 215.492,220.823 211.5,222C 210.944,222.383 210.611,222.883 210.5,223.5 Z"/></g>
<g><path style="opacity:1" fill="#fcdc58" d="M 123.5,210.5 C 139.837,210.333 156.17,210.5 172.5,211C 181.844,214.175 186.177,220.675 185.5,230.5C 171.623,232.345 159.29,237.678 148.5,246.5C 137.557,238.07 125.223,232.737 111.5,230.5C 111.035,226.208 111.868,222.208 114,218.5C 116.772,215.217 119.939,212.55 123.5,210.5 Z"/></g>
<g><path style="opacity:1" fill="#9e9953" d="M 210.5,223.5 C 210.5,224.833 210.5,226.167 210.5,227.5C 208.5,227.5 206.5,227.5 204.5,227.5C 205.919,226.549 207.585,226.216 209.5,226.5C 209.263,225.209 209.596,224.209 210.5,223.5 Z"/></g>
<g><path style="opacity:1" fill="#f8d958" d="M 72.5,232.5 C 90.9158,232.694 108.916,235.528 126.5,241C 133.073,243.867 139.239,247.367 145,251.5C 145.499,255.486 145.666,259.486 145.5,263.5C 120.478,260.247 95.478,256.747 70.5,253C 69.5223,246.59 69.189,240.09 69.5,233.5C 70.791,233.737 71.791,233.404 72.5,232.5 Z"/></g>
<g><path style="opacity:1" fill="#fada58" d="M 212.5,232.5 C 217.547,232.337 222.547,232.671 227.5,233.5C 227.5,239.833 227.5,246.167 227.5,252.5C 202.141,256.003 176.808,259.67 151.5,263.5C 151.334,259.486 151.501,255.486 152,251.5C 170.213,238.817 190.379,232.484 212.5,232.5 Z"/></g>
<g><path style="opacity:1" fill="#efd358" d="M 63.5,258.5 C 91.4412,261.808 119.274,265.808 147,270.5C 175.829,266.316 204.662,262.316 233.5,258.5C 233.5,262.833 233.5,267.167 233.5,271.5C 211.164,271.333 188.831,271.5 166.5,272C 165.789,274.796 165.122,277.63 164.5,280.5C 153.833,281.833 143.167,281.833 132.5,280.5C 131.878,277.63 131.211,274.796 130.5,272C 108.169,271.5 85.8358,271.333 63.5,271.5C 63.5,267.167 63.5,262.833 63.5,258.5 Z"/></g>
<g><path style="opacity:1" fill="#f2f4f5" d="M 55.5,311.5 C 64.8166,310.143 70.8166,313.81 73.5,322.5C 71.139,322.674 68.8056,323.007 66.5,323.5C 66.607,321.097 65.607,319.264 63.5,318C 55.6395,315.86 51.9728,318.86 52.5,327C 53.2477,336.603 57.5811,338.77 65.5,333.5C 66.2458,332.264 66.5792,330.93 66.5,329.5C 68.861,329.674 71.1944,330.007 73.5,330.5C 70.4917,340.508 63.825,344.008 53.5,341C 45.9443,336.152 43.4443,329.318 46,320.5C 48.4301,316.566 51.5967,313.566 55.5,311.5 Z"/></g>
<g><path style="opacity:1" fill="#9dadb7" d="M 202.5,312.5 C 211.318,311.507 220.318,311.173 229.5,311.5C 229.795,313.735 229.461,315.735 228.5,317.5C 228.5,315.833 228.5,314.167 228.5,312.5C 219.833,312.5 211.167,312.5 202.5,312.5 Z"/></g>
<g><path style="opacity:1" fill="#f2f4f5" d="M 22.5,311.5 C 28.9323,310.347 34.4323,312.014 39,316.5C 40.128,318.345 40.628,320.345 40.5,322.5C 38.9397,322.519 37.4397,322.852 36,323.5C 33.3984,318.285 29.2318,316.452 23.5,318C 18.0656,324.301 18.3989,330.301 24.5,336C 30.0761,337.254 33.4095,335.087 34.5,329.5C 41.1794,329.154 42.6794,331.487 39,336.5C 30.6436,343.466 22.6436,343.132 15,335.5C 10.3391,325.176 12.8391,317.176 22.5,311.5 Z"/></g>
<g><path style="opacity:1" fill="#fbfcfc" d="M 78.5,311.5 C 80.5,311.5 82.5,311.5 84.5,311.5C 84.5,319.833 84.5,328.167 84.5,336.5C 89.5,336.5 94.5,336.5 99.5,336.5C 99.5,338.167 99.5,339.833 99.5,341.5C 92.5,341.5 85.5,341.5 78.5,341.5C 78.5,331.5 78.5,321.5 78.5,311.5 Z"/></g>
<g><path style="opacity:1" fill="#f2f4f5" d="M 122.5,311.5 C 128.932,310.347 134.432,312.014 139,316.5C 140.128,318.345 140.628,320.345 140.5,322.5C 138.94,322.519 137.44,322.852 136,323.5C 133.398,318.285 129.232,316.452 123.5,318C 118.066,324.301 118.399,330.301 124.5,336C 130.076,337.254 133.409,335.087 134.5,329.5C 141.179,329.154 142.679,331.487 139,336.5C 130.644,343.466 122.644,343.132 115,335.5C 110.339,325.176 112.839,317.176 122.5,311.5 Z"/></g>
<g><path style="opacity:1" fill="#98a9b2" d="M 168.5,312.5 C 161.167,312.5 153.833,312.5 146.5,312.5C 146.5,322.167 146.5,331.833 146.5,341.5C 145.506,331.681 145.173,321.681 145.5,311.5C 153.352,311.175 161.018,311.508 168.5,312.5 Z"/></g>
<g><path style="opacity:1" fill="#f6f7f8" d="M 168.5,312.5 C 168.5,314.167 168.5,315.833 168.5,317.5C 163.167,317.5 157.833,317.5 152.5,317.5C 152.5,319.5 152.5,321.5 152.5,323.5C 156.5,323.5 160.5,323.5 164.5,323.5C 164.5,325.5 164.5,327.5 164.5,329.5C 160.5,329.5 156.5,329.5 152.5,329.5C 152.5,331.833 152.5,334.167 152.5,336.5C 157.833,336.5 163.167,336.5 168.5,336.5C 168.5,338.167 168.5,339.833 168.5,341.5C 161.167,341.5 153.833,341.5 146.5,341.5C 146.5,331.833 146.5,322.167 146.5,312.5C 153.833,312.5 161.167,312.5 168.5,312.5 Z"/></g>
<g><path style="opacity:1" fill="#627b8b" d="M 180.5,312.5 C 178.167,312.5 175.833,312.5 173.5,312.5C 173.5,322.167 173.5,331.833 173.5,341.5C 172.506,331.681 172.173,321.681 172.5,311.5C 175.385,311.194 178.052,311.527 180.5,312.5 Z"/></g>
<g><path style="opacity:1" fill="#f7f8f9" d="M 173.5,341.5 C 173.5,331.833 173.5,322.167 173.5,312.5C 175.833,312.5 178.167,312.5 180.5,312.5C 184.323,318.138 188.157,323.805 192,329.5C 192.499,323.509 192.666,317.509 192.5,311.5C 194.5,311.5 196.5,311.5 198.5,311.5C 198.5,321.5 198.5,331.5 198.5,341.5C 196.208,341.756 194.041,341.423 192,340.5C 188,334.5 184,328.5 180,322.5C 179.5,328.825 179.334,335.158 179.5,341.5C 177.5,341.5 175.5,341.5 173.5,341.5 Z"/></g>
<g><path style="opacity:1" fill="#fafbfb" d="M 202.5,312.5 C 211.167,312.5 219.833,312.5 228.5,312.5C 228.5,314.167 228.5,315.833 228.5,317.5C 225.167,317.5 221.833,317.5 218.5,317.5C 218.5,325.5 218.5,333.5 218.5,341.5C 216.5,341.5 214.5,341.5 212.5,341.5C 212.5,333.5 212.5,325.5 212.5,317.5C 209.167,317.5 205.833,317.5 202.5,317.5C 202.5,315.833 202.5,314.167 202.5,312.5 Z"/></g>
<g><path style="opacity:1" fill="#98a9b2" d="M 255.5,312.5 C 248.167,312.5 240.833,312.5 233.5,312.5C 233.5,322.167 233.5,331.833 233.5,341.5C 232.506,331.681 232.173,321.681 232.5,311.5C 240.352,311.175 248.018,311.508 255.5,312.5 Z"/></g>
<g><path style="opacity:1" fill="#f6f7f8" d="M 255.5,312.5 C 255.5,314.167 255.5,315.833 255.5,317.5C 250.167,317.5 244.833,317.5 239.5,317.5C 239.5,319.5 239.5,321.5 239.5,323.5C 243.5,323.5 247.5,323.5 251.5,323.5C 251.5,325.5 251.5,327.5 251.5,329.5C 247.5,329.5 243.5,329.5 239.5,329.5C 239.5,331.833 239.5,334.167 239.5,336.5C 244.833,336.5 250.167,336.5 255.5,336.5C 255.5,338.167 255.5,339.833 255.5,341.5C 248.167,341.5 240.833,341.5 233.5,341.5C 233.5,331.833 233.5,322.167 233.5,312.5C 240.833,312.5 248.167,312.5 255.5,312.5 Z"/></g>
<g><path style="opacity:1" fill="#698190" d="M 276.5,312.5 C 271.167,312.5 265.833,312.5 260.5,312.5C 260.5,322.167 260.5,331.833 260.5,341.5C 259.506,331.681 259.173,321.681 259.5,311.5C 265.358,311.178 271.025,311.511 276.5,312.5 Z"/></g>
<g><path style="opacity:1" fill="#f6f8f8" d="M 276.5,312.5 C 282.623,313.796 284.79,317.463 283,323.5C 282.065,326.102 280.232,327.602 277.5,328C 278.579,328.956 279.745,329.789 281,330.5C 281.98,333.898 283.146,337.231 284.5,340.5C 281.914,341.48 279.247,341.813 276.5,341.5C 276.469,338.041 275.802,334.708 274.5,331.5C 271.914,330.52 269.247,330.187 266.5,330.5C 266.5,334.167 266.5,337.833 266.5,341.5C 264.5,341.5 262.5,341.5 260.5,341.5C 260.5,331.833 260.5,322.167 260.5,312.5C 265.833,312.5 271.167,312.5 276.5,312.5 Z"/></g>
<g><path style="opacity:1" fill="#0e344c" d="M 266.5,317.5 C 269.518,317.335 272.518,317.502 275.5,318C 276.833,320 276.833,322 275.5,324C 272.518,324.498 269.518,324.665 266.5,324.5C 266.5,322.167 266.5,319.833 266.5,317.5 Z"/></g>
</svg>
