<?xml version="1.0" encoding="UTF-8"?>
<!DOCTYPE svg PUBLIC "-//W3C//DTD SVG 1.1//EN" "http://www.w3.org/Graphics/SVG/1.1/DTD/svg11.dtd">
<svg xmlns="http://www.w3.org/2000/svg" version="1.1" width="253px" height="288px" style="shape-rendering:geometricPrecision; text-rendering:geometricPrecision; image-rendering:optimizeQuality; fill-rule:evenodd; clip-rule:evenodd" xmlns:xlink="http://www.w3.org/1999/xlink">
<g><path style="opacity:1" fill="#0c334b" d="M -0.5,-0.5 C 83.8333,-0.5 168.167,-0.5 252.5,-0.5C 252.5,95.5 252.5,191.5 252.5,287.5C 168.167,287.5 83.8333,287.5 -0.5,287.5C -0.5,191.5 -0.5,95.5 -0.5,-0.5 Z"/></g>
<g><path style="opacity:1" fill="#f9da59" d="M 146.5,35.5 C 144.203,37.2941 142.037,39.2941 140,41.5C 139.278,44.2605 139.445,46.9272 140.5,49.5C 141.19,53.4896 141.357,57.4896 141,61.5C 135.762,58.5479 130.429,55.8812 125,53.5C 119.658,55.7549 114.491,58.4216 109.5,61.5C 108.829,57.1563 109.163,52.823 110.5,48.5C 111.014,46.4884 111.18,44.4884 111,42.5C 108.963,40.2941 106.797,38.2941 104.5,36.5C 102.706,34.2034 100.706,32.0367 98.5,30C 104.362,28.3523 110.362,27.3523 116.5,27C 119.461,21.5784 122.294,16.0784 125,10.5C 128.088,15.6748 130.921,21.0082 133.5,26.5C 139.446,27.8975 145.446,29.0642 151.5,30C 149.627,31.7038 147.96,33.5372 146.5,35.5 Z"/></g>
<g><path style="opacity:1" fill="#f8d95a" d="M 90.5,45.5 C 88.0081,48.4691 85.5081,51.4691 83,54.5C 82.9267,58.4301 83.76,62.0967 85.5,65.5C 86.2178,67.1368 86.3845,68.8034 86,70.5C 83.9935,69.3313 81.8268,68.6646 79.5,68.5C 77.4839,67.412 75.3172,66.412 73,65.5C 69.4021,67.7135 65.9021,70.0469 62.5,72.5C 61.5318,70.3926 61.1984,68.0593 61.5,65.5C 61.6621,63.4727 61.4955,61.4727 61,59.5C 57.4338,56.3007 53.6004,53.4674 49.5,51C 53.7319,49.2005 58.0652,47.7005 62.5,46.5C 64.4189,41.9177 66.2523,37.251 68,32.5C 70.5,36.1667 73,39.8333 75.5,43.5C 80.6511,44.1668 85.6511,44.8335 90.5,45.5 Z"/></g>
<g><path style="opacity:1" fill="#f9da5a" d="M 189.5,66.5 C 189.808,68.924 189.474,71.2573 188.5,73.5C 184.794,70.6237 180.961,67.957 177,65.5C 174.28,66.2333 171.78,67.2333 169.5,68.5C 167.883,69.038 166.216,69.3713 164.5,69.5C 164.5,68.1667 164.5,66.8333 164.5,65.5C 165.81,62.6015 167.143,59.6015 168.5,56.5C 165.825,52.4989 162.825,48.8323 159.5,45.5C 164.316,44.6739 169.316,44.1739 174.5,44C 176.632,40.2359 179.132,36.7359 182,33.5C 184.284,37.6281 186.117,41.9614 187.5,46.5C 191.796,48.0987 196.129,49.5987 200.5,51C 197.264,53.8681 193.764,56.3681 190,58.5C 189.503,61.146 189.336,63.8127 189.5,66.5 Z"/></g>
<g><path style="opacity:1" fill="#afd4fa" d="M 104.5,36.5 C 106.797,38.2941 108.963,40.2941 111,42.5C 111.18,44.4884 111.014,46.4884 110.5,48.5C 101.956,53.9322 93.6231,59.5989 85.5,65.5C 83.76,62.0967 82.9267,58.4301 83,54.5C 85.5081,51.4691 88.0081,48.4691 90.5,45.5C 95.5146,42.9957 100.181,39.9957 104.5,36.5 Z"/></g>
<g><path style="opacity:1" fill="#afd4f9" d="M 146.5,35.5 C 149.784,40.0001 154.117,43.3334 159.5,45.5C 162.825,48.8323 165.825,52.4989 168.5,56.5C 167.143,59.6015 165.81,62.6015 164.5,65.5C 156.852,59.6734 148.852,54.3401 140.5,49.5C 139.445,46.9272 139.278,44.2605 140,41.5C 142.037,39.2941 144.203,37.2941 146.5,35.5 Z"/></g>
<g><path style="opacity:1" fill="#0f344b" d="M 110.5,48.5 C 109.163,52.823 108.829,57.1563 109.5,61.5C 114.491,58.4216 119.658,55.7549 125,53.5C 130.429,55.8812 135.762,58.5479 141,61.5C 141.357,57.4896 141.19,53.4896 140.5,49.5C 148.852,54.3401 156.852,59.6734 164.5,65.5C 164.5,66.8333 164.5,68.1667 164.5,69.5C 166.216,69.3713 167.883,69.038 169.5,68.5C 190.405,81.8721 210.905,95.8721 231,110.5C 232,112.5 233,114.5 234,116.5C 234.667,162.167 234.667,207.833 234,253.5C 231.723,261.444 226.556,266.278 218.5,268C 192.502,268.5 166.502,268.667 140.5,268.5C 142.024,265.211 143.024,261.711 143.5,258C 165.831,257.5 188.164,257.333 210.5,257.5C 210.5,253.5 210.5,249.5 210.5,245.5C 201.824,246.134 193.157,246.968 184.5,248C 164.6,250.7 144.766,253.867 125,257.5C 96.9085,252.915 68.7419,248.915 40.5,245.5C 40.5,249.5 40.5,253.5 40.5,257.5C 62.5025,257.333 84.5025,257.5 106.5,258C 107.878,261.49 109.211,264.99 110.5,268.5C 83.4979,268.667 56.4979,268.5 29.5,268C 22.9028,265.737 18.7361,261.237 17,254.5C 16.3333,208.167 16.3333,161.833 17,115.5C 18.2106,112.241 20.0439,109.408 22.5,107C 41.5657,94.1436 60.5657,81.3103 79.5,68.5C 81.8268,68.6646 83.9935,69.3313 86,70.5C 86.3845,68.8034 86.2178,67.1368 85.5,65.5C 93.6231,59.5989 101.956,53.9322 110.5,48.5 Z"/></g>
<g><path style="opacity:1" fill="#add3fa" d="M 79.5,68.5 C 60.5657,81.3103 41.5657,94.1436 22.5,107C 20.0439,109.408 18.2106,112.241 17,115.5C 16.3333,161.833 16.3333,208.167 17,254.5C 18.7361,261.237 22.9028,265.737 29.5,268C 56.4979,268.5 83.4979,268.667 110.5,268.5C 120.5,268.5 130.5,268.5 140.5,268.5C 166.502,268.667 192.502,268.5 218.5,268C 226.556,266.278 231.723,261.444 234,253.5C 234.667,207.833 234.667,162.167 234,116.5C 233,114.5 232,112.5 231,110.5C 210.905,95.8721 190.405,81.8721 169.5,68.5C 171.78,67.2333 174.28,66.2333 177,65.5C 180.961,67.957 184.794,70.6237 188.5,73.5C 189.474,71.2573 189.808,68.924 189.5,66.5C 207.424,77.382 224.591,89.382 241,102.5C 243.194,105.554 244.861,108.888 246,112.5C 247.147,136.619 247.647,160.786 247.5,185C 247.647,209.214 247.147,233.381 246,257.5C 242.86,269.973 235.027,277.807 222.5,281C 157.5,281.667 92.5,281.667 27.5,281C 15.236,277.07 7.40264,268.903 4,256.5C 3.33333,208.833 3.33333,161.167 4,113.5C 5.88995,106.95 9.38995,101.45 14.5,97C 29.6902,86.5748 45.0235,76.4081 60.5,66.5C 60.1924,68.924 60.5258,71.2573 61.5,73.5C 62.1067,73.3764 62.44,73.0431 62.5,72.5C 65.9021,70.0469 69.4021,67.7135 73,65.5C 75.3172,66.412 77.4839,67.412 79.5,68.5 Z"/></g>
<g><path style="opacity:1" fill="#f8d958" d="M 120.5,68.5 C 140.579,75.3603 160.579,82.5269 180.5,90C 171.358,93.9919 162.025,97.4919 152.5,100.5C 153.569,95.4568 151.903,91.6235 147.5,89C 135.321,83.9544 122.654,82.2877 109.5,84C 102.261,84.7336 96.4281,87.9002 92,93.5C 91.5034,95.8098 91.3367,98.1432 91.5,100.5C 81.9646,97.7657 72.6313,94.4324 63.5,90.5C 82.5896,83.1414 101.59,75.808 120.5,68.5 Z"/></g>
<g><path style="opacity:1" fill="#dad9a3" d="M 61.5,65.5 C 61.1984,68.0593 61.5318,70.3926 62.5,72.5C 62.44,73.0431 62.1067,73.3764 61.5,73.5C 60.5258,71.2573 60.1924,68.924 60.5,66.5C 60.5,65.8333 60.8333,65.5 61.5,65.5 Z"/></g>
<g><path style="opacity:1" fill="#f9da58" d="M 145.5,95.5 C 145.823,102.022 145.49,108.355 144.5,114.5C 128.84,110.501 113.174,110.501 97.5,114.5C 97.1703,108.132 97.5037,101.798 98.5,95.5C 107.772,90.1202 117.772,88.2868 128.5,90C 134.637,90.7758 140.304,92.6091 145.5,95.5 Z"/></g>
<g><path style="opacity:1" fill="#9c9853" d="M 145.5,95.5 C 146.818,102.011 146.818,108.678 145.5,115.5C 144.893,115.376 144.56,115.043 144.5,114.5C 145.49,108.355 145.823,102.022 145.5,95.5 Z"/></g>
<g><path style="opacity:1" fill="#e5cb58" d="M 188.5,110.5 C 193.241,110.161 194.574,112.161 192.5,116.5C 190.958,117.747 189.458,117.747 188,116.5C 187.322,114.402 187.489,112.402 188.5,110.5 Z"/></g>
<g><path style="opacity:1" fill="#edd158" d="M 111.5,117.5 C 122.748,116.724 133.748,117.89 144.5,121C 144.957,121.414 145.291,121.914 145.5,122.5C 141.304,124.133 136.971,125.299 132.5,126C 124.5,126.667 116.5,126.667 108.5,126C 104.98,125.327 101.647,124.16 98.5,122.5C 98.7093,121.914 99.0426,121.414 99.5,121C 103.623,119.808 107.623,118.641 111.5,117.5 Z"/></g>
<g><path style="opacity:1" fill="#fcdc58" d="M 118.5,147.5 C 138.825,146.317 147.325,155.651 144,175.5C 137.772,186.36 128.605,189.86 116.5,186C 106.771,180.163 103.271,171.663 106,160.5C 108.387,154.343 112.554,150.01 118.5,147.5 Z"/></g>
<g><path style="opacity:1" fill="#f8d958" d="M 74.5,156.5 C 89.142,157.461 93.9753,164.795 89,178.5C 82.8526,185.276 76.0193,186.109 68.5,181C 64.7159,176.139 63.5493,170.639 65,164.5C 67.3616,160.755 70.5283,158.089 74.5,156.5 Z"/></g>
<g><path style="opacity:1" fill="#f9da58" d="M 169.5,156.5 C 184.153,157.488 188.987,164.821 184,178.5C 174.705,187.171 166.705,186.171 160,175.5C 157.919,166.327 161.086,159.994 169.5,156.5 Z"/></g>
<g><path style="opacity:1" fill="#fbdb58" d="M 57.5,210.5 C 56.2209,211.968 54.5542,212.635 52.5,212.5C 52.5,208.833 52.5,205.167 52.5,201.5C 53.5237,197.638 55.8571,194.805 59.5,193C 71.1667,192.333 82.8333,192.333 94.5,193C 86.422,198.312 81.7553,205.812 80.5,215.5C 74.8987,214.396 69.2321,213.729 63.5,213.5C 64.1106,209.971 62.7773,208.138 59.5,208C 58.6195,208.708 57.9528,209.542 57.5,210.5 Z"/></g>
<g><path style="opacity:1" fill="#fbdb58" d="M 155.5,193.5 C 160.99,192.834 166.657,192.501 172.5,192.5C 179.243,192.393 185.91,192.893 192.5,194C 195.381,195.251 197.214,197.417 198,200.5C 198.499,204.486 198.666,208.486 198.5,212.5C 196.833,212.5 195.167,212.5 193.5,212.5C 193.003,207.507 190.836,206.507 187,209.5C 186.51,210.793 186.343,212.127 186.5,213.5C 180.419,213.514 174.419,214.181 168.5,215.5C 168.763,205.348 164.43,198.014 155.5,193.5 Z"/></g>
<g><path style="opacity:1" fill="#fbdb58" d="M 101.5,196.5 C 117.17,196.333 132.837,196.5 148.5,197C 157.689,200.199 162.356,206.699 162.5,216.5C 148.435,218.784 135.935,224.451 125,233.5C 114.343,224.757 102.176,219.09 88.5,216.5C 87.9975,206.673 92.3309,200.006 101.5,196.5 Z"/></g>
<g><path style="opacity:1" fill="#b8ac55" d="M 52.5,201.5 C 52.5,205.167 52.5,208.833 52.5,212.5C 54.5542,212.635 56.2209,211.968 57.5,210.5C 57.5,211.5 57.5,212.5 57.5,213.5C 55.5,213.5 53.5,213.5 51.5,213.5C 51.1832,209.298 51.5166,205.298 52.5,201.5 Z"/></g>
<g><path style="opacity:1" fill="#fada58" d="M 121.5,238.5 C 122.08,242.649 121.414,246.316 119.5,249.5C 95.1176,246.541 70.7843,243.207 46.5,239.5C 46.5,232.833 46.5,226.167 46.5,219.5C 65.6087,219.048 84.2753,221.548 102.5,227C 109.563,229.854 115.896,233.688 121.5,238.5 Z"/></g>
<g><path style="opacity:1" fill="#fcdc58" d="M 201.5,219.5 C 202.743,222.569 203.409,225.902 203.5,229.5C 203.409,233.098 202.743,236.431 201.5,239.5C 177.161,242.834 152.827,246.168 128.5,249.5C 128.334,245.486 128.501,241.486 129,237.5C 139.911,229.463 152.078,224.297 165.5,222C 177.424,220.1 189.424,219.267 201.5,219.5 Z"/></g>
<g><path style="opacity:1" fill="#9b9753" d="M 201.5,219.5 C 202.5,219.5 203.5,219.5 204.5,219.5C 204.5,226.167 204.5,232.833 204.5,239.5C 203.5,239.5 202.5,239.5 201.5,239.5C 202.743,236.431 203.409,233.098 203.5,229.5C 203.409,225.902 202.743,222.569 201.5,219.5 Z"/></g>
<g><path style="opacity:1" fill="#868951" d="M 121.5,238.5 C 122.483,242.298 122.817,246.298 122.5,250.5C 121.209,250.737 120.209,250.404 119.5,249.5C 121.414,246.316 122.08,242.649 121.5,238.5 Z"/></g>
<g><path style="opacity:1" fill="#fbdb58" d="M 140.5,268.5 C 130.5,268.5 120.5,268.5 110.5,268.5C 109.211,264.99 107.878,261.49 106.5,258C 84.5025,257.5 62.5025,257.333 40.5,257.5C 40.5,253.5 40.5,249.5 40.5,245.5C 68.7419,248.915 96.9085,252.915 125,257.5C 144.766,253.867 164.6,250.7 184.5,248C 193.157,246.968 201.824,246.134 210.5,245.5C 210.5,249.5 210.5,253.5 210.5,257.5C 188.164,257.333 165.831,257.5 143.5,258C 143.024,261.711 142.024,265.211 140.5,268.5 Z"/></g>
</svg>
